<?xml version="1.0" standalone="no"?>
<!DOCTYPE svg PUBLIC "-//W3C//DTD SVG 20010904//EN"
 "http://www.w3.org/TR/2001/REC-SVG-20010904/DTD/svg10.dtd">
<svg version="1.0" xmlns="http://www.w3.org/2000/svg"
 width="300.000000pt" height="300.000000pt" viewBox="0 0 300.000000 300.000000"
 preserveAspectRatio="xMidYMid meet">
<metadata>
Created by potrace 1.10, written by Peter Selinger 2001-2011
</metadata>
<g transform="translate(0.000000,300.000000) scale(0.100000,-0.100000)"
fill="#000000" stroke="none">
<path d="M1315 2984 c-654 -96 -1145 -553 -1282 -1194 -14 -66 -18 -130 -18
-290 0 -178 3 -219 23 -309 105 -467 400 -839 826 -1042 216 -102 432 -145
691 -136 176 6 280 25 435 77 514 174 904 643 985 1184 115 780 -374 1500
-1145 1683 -89 21 -135 25 -295 28 -104 2 -203 1 -220 -1z m384 -34 c325 -54
579 -177 805 -391 267 -253 412 -557 457 -961 23 -207 -32 -484 -143 -728
-124 -269 -388 -539 -667 -679 -149 -76 -410 -144 -596 -157 -196 -14 -507 57
-718 162 -93 47 -249 157 -330 233 -274 258 -427 574 -469 969 -23 219 32 496
147 739 66 141 156 264 285 393 255 256 538 386 940 434 51 6 215 -2 289 -14z"/>
<path d="M1195 2680 c-60 -22 -38 -26 31 -5 82 25 102 21 154 -33 85 -88 112
-176 105 -342 -9 -215 -13 -765 -5 -710 4 30 8 181 9 334 1 154 3 277 5 275 2
-2 7 -137 11 -299 3 -162 10 -311 15 -330 7 -27 8 -18 5 40 -2 41 -6 253 -7
470 l-3 395 27 57 c15 32 48 80 74 108 53 57 70 60 161 34 30 -9 57 -13 60
-11 8 9 -97 37 -137 37 -65 0 -151 -92 -186 -201 -18 -53 -18 -53 -24 -23 -12
57 -54 128 -103 177 -44 43 -52 47 -95 46 -26 0 -69 -9 -97 -19z"/>
<path d="M953 2609 c-60 -30 -91 -53 -114 -83 -37 -50 -34 -81 14 -140 19 -23
62 -84 96 -136 91 -137 156 -225 225 -305 76 -87 103 -111 139 -124 23 -9 13
6 -52 75 -94 99 -167 194 -271 349 -40 61 -91 133 -112 162 -21 29 -38 60 -38
69 0 38 165 144 224 144 59 0 120 -170 141 -395 4 -38 16 -99 27 -135 24 -78
108 -260 120 -260 11 0 1 43 -22 95 -69 157 -79 193 -110 410 -21 146 -66 267
-112 299 -35 25 -66 19 -155 -25z"/>
<path d="M1880 2624 c-52 -44 -89 -163 -115 -364 -17 -132 -27 -169 -84 -302
-65 -154 -53 -176 17 -33 53 108 88 223 96 320 18 207 81 375 140 375 36 0
157 -65 196 -105 41 -42 50 -19 -89 -222 -144 -211 -222 -311 -305 -393 -42
-41 -76 -78 -76 -82 0 -28 118 69 190 157 105 128 342 485 335 504 -22 58 -83
110 -179 151 -63 27 -88 25 -126 -6z"/>
<path d="M1193 2583 c75 -75 98 -134 108 -282 5 -81 17 -160 34 -221 52 -191
58 -217 81 -345 18 -101 22 -114 18 -60 -7 84 -36 233 -69 347 -38 133 -46
176 -54 298 -6 82 -14 129 -29 162 -21 48 -106 148 -125 148 -6 0 11 -21 36
-47z"/>
<path d="M1784 2584 c-69 -74 -87 -120 -96 -257 -6 -87 -19 -159 -49 -275 -62
-235 -90 -390 -88 -482 1 -41 2 -39 10 20 24 179 32 229 44 275 78 291 86 329
94 449 10 144 25 186 100 266 26 27 43 50 37 50 -5 0 -29 -21 -52 -46z"/>
<path d="M650 2110 c0 -8 11 -56 25 -105 48 -177 131 -302 236 -360 111 -60
294 -40 354 39 31 41 31 41 -1 84 -33 43 -80 64 -229 103 -65 16 -145 41 -179
54 -34 14 -52 18 -42 10 20 -16 192 -75 216 -75 8 0 52 -12 98 -26 131 -42
174 -99 117 -156 -64 -64 -239 -77 -330 -24 -66 39 -119 99 -164 186 -35 66
-71 166 -71 193 0 6 21 -11 47 -36 26 -26 52 -47 58 -47 5 0 -9 17 -33 36 -24
20 -56 60 -72 88 -17 28 -30 44 -30 36z"/>
<path d="M2325 2086 c-24 -51 -86 -111 -142 -139 -49 -25 -202 -77 -225 -77
-7 0 -51 -12 -97 -27 -60 -19 -93 -36 -117 -60 -46 -45 -44 -73 7 -116 94 -81
275 -76 383 9 46 37 109 126 145 206 27 60 74 228 66 236 -2 2 -11 -12 -20
-32z m-16 -87 c-24 -107 -97 -238 -169 -303 -61 -55 -102 -69 -205 -70 -75 -1
-98 3 -138 23 -125 61 -84 142 95 191 246 67 324 99 385 162 20 21 38 38 39
38 1 0 -2 -18 -7 -41z"/>
<path d="M650 1947 c0 -2 7 -28 16 -58 39 -131 137 -265 229 -309 111 -54 242
-45 363 26 48 28 51 44 4 20 -103 -53 -227 -69 -318 -40 -47 14 -71 30 -120
78 -57 58 -84 102 -142 239 -17 39 -32 59 -32 44z"/>
<path d="M2315 1905 c-78 -183 -118 -239 -211 -295 -55 -33 -63 -35 -149 -35
-86 0 -165 19 -239 57 -13 7 -16 7 -11 -1 12 -21 107 -63 174 -77 158 -32 298
37 391 195 42 71 75 162 67 183 -3 7 -12 -5 -22 -27z"/>
<path d="M2367 1783 c-8 -235 -52 -382 -144 -484 -37 -40 -99 -79 -127 -79 -9
0 -29 27 -47 63 -17 34 -45 79 -61 99 -29 38 -153 133 -263 203 -76 48 -48 14
50 -60 130 -99 190 -151 208 -180 10 -17 33 -55 50 -85 27 -46 37 -55 64 -58
103 -10 221 143 273 353 25 102 35 354 14 375 -8 8 -13 -30 -17 -147z"/>
<path d="M604 1884 c-10 -72 3 -250 25 -341 38 -155 117 -280 202 -323 73 -38
98 -25 157 80 40 72 64 96 175 180 99 75 164 130 153 130 -10 0 -148 -93 -217
-146 -75 -57 -109 -98 -149 -177 -37 -74 -52 -81 -105 -49 -82 51 -152 159
-185 285 -23 94 -42 285 -33 355 7 66 -13 72 -23 6z"/>
<path d="M1326 1440 c-48 -15 -97 -55 -189 -155 -99 -106 -131 -127 -229 -145
-57 -10 -74 -10 -121 4 -81 23 -172 98 -246 202 -42 58 -44 37 -4 -37 57 -108
158 -210 250 -256 67 -33 86 -38 168 -41 128 -6 177 17 290 133 81 83 145 124
192 125 24 0 53 43 53 80 0 11 5 20 10 20 6 0 10 -12 10 -28 0 -41 25 -70 68
-78 56 -10 69 -19 172 -118 52 -51 112 -100 133 -110 146 -68 339 -18 469 123
35 37 80 97 101 132 40 69 50 114 14 64 -48 -66 -150 -164 -196 -189 -64 -34
-121 -41 -204 -23 -85 18 -120 43 -230 162 -84 91 -138 130 -182 135 -50 6
-85 -2 -119 -25 l-37 -25 -37 24 c-43 29 -95 39 -136 26z m119 -40 c23 -13 30
-23 28 -45 -2 -30 -28 -65 -49 -65 -38 0 -108 -46 -186 -124 -120 -117 -148
-131 -268 -131 -91 0 -100 2 -170 37 -73 36 -119 78 -86 78 8 0 17 -4 20 -9
13 -21 116 -31 192 -19 94 15 114 29 262 183 75 78 97 96 139 110 42 15 73 11
118 -15z m264 -4 c21 -14 78 -68 127 -121 54 -59 106 -106 134 -119 58 -29
161 -49 211 -41 21 4 41 6 44 6 3 -1 18 5 35 14 42 22 47 19 19 -11 -61 -65
-211 -110 -308 -93 -75 14 -108 36 -221 144 -74 71 -105 94 -140 104 -59 16
-79 32 -86 69 -6 27 -2 33 27 51 47 29 109 27 158 -3z"/>
<path d="M1741 1074 c116 -120 167 -154 227 -154 48 0 101 21 128 51 17 19 16
19 -41 -1 -107 -37 -136 -26 -278 104 -58 53 -111 96 -118 96 -6 0 30 -43 82
-96z"/>
<path d="M1234 1079 c-159 -149 -198 -164 -305 -118 -63 27 -73 19 -21 -16 53
-35 107 -47 154 -34 43 11 151 100 226 186 28 32 53 56 55 53 3 -3 -3 -32 -14
-65 -54 -162 -60 -338 -20 -530 11 -54 15 -94 10 -100 -15 -15 -262 245 -369
388 -90 120 -122 149 -84 75 24 -48 78 -121 160 -218 156 -183 238 -260 280
-260 40 0 47 29 28 132 -26 138 -24 318 5 451 35 167 20 175 -105 56z"/>
<path d="M1383 1055 c0 -55 -1 -172 -3 -260 -2 -115 2 -188 14 -260 16 -98 75
-377 81 -383 6 -7 93 272 116 373 21 90 23 125 24 345 0 135 4 252 9 260 14
20 44 -138 52 -270 6 -95 -10 -263 -32 -346 -3 -12 2 -30 14 -44 18 -22 22
-23 51 -11 65 28 357 357 415 469 35 68 9 51 -56 -36 -135 -182 -356 -422
-388 -422 -13 0 -13 0 10 137 24 141 25 266 5 365 -23 106 -47 178 -61 178 -6
0 -30 -18 -52 -40 -29 -30 -48 -40 -71 -40 -41 0 -84 22 -109 57 l-20 27 1
-99z m122 1 c22 1 50 4 61 8 21 8 21 5 28 -166 6 -139 4 -193 -9 -277 -24
-149 -87 -371 -105 -371 -8 0 -54 212 -69 320 -18 125 -19 208 -8 358 l10 143
26 -7 c14 -5 44 -8 66 -8z"/>
</g>
</svg>
